<?xml version="1.0" encoding="utf-8"?>
<!-- Generator: Adobe Illustrator 19.2.0, SVG Export Plug-In . SVG Version: 6.00 Build 0)  -->
<svg version="1.1" id="Layer_1" xmlns="http://www.w3.org/2000/svg" xmlns:xlink="http://www.w3.org/1999/xlink" x="0px" y="0px"
	 viewBox="0 0 512 512" style="enable-background:new 0 0 512 512;" xml:space="preserve">
<g>
	<g>
		<path d="M96,179.5c0-3.3,3.6-7.2,7-7.3c5.7-0.1,11.5-0.8,17,0.2c6.3,1.2,12.9,0.7,19,2.8c4.1,1.5,7.9,3.7,12.3,4.5
			c1,0.2,1.3,0.9,2.4-0.1c1.1-1.1,1.3-2.1,0.8-3.1c-0.6-1.2-0.2-2.1-0.1-3.3c0.2-5.9,1.7-11.9-0.7-17.7c-0.6-1.5-0.3-3.1-0.3-4.7
			c0.1-2-0.7-3.6-2.5-4.2c-6.4-2.2-11.6-6.8-17.7-9.5c-7.4-3.3-13.9-8.2-20.1-13c-3.3-2.5-7.1-2.8-10-5.1
			c-5.8-4.6-12.3-8.3-16.7-14.7c-1.2-1.7-2.9-3.3-5.3-4.2c-3.6-1.2-5.5-5-8.7-7C67,89.8,61.8,85.8,56.5,82c0.8-2,2.8-1.9,4.8-2.1
			c2.4-0.2,4.8,0.8,7.2-1.2c4-3.3,5.1-5.9,1.6-9c-4.1-3.6-6.2-8.7-9.4-12.9c-1-1.4-2.2-2.8-3.3-3.9c-2.9-2.9-4-6.4-4.9-10.1
			c-0.5-2.2-2.2-3.9-3.4-5.4c-2.7-3.5-1.9-7.6-3.5-11.3c-0.5-1.2-1.3-2.4-1.7-3.7c-1.3-4.2-2.6-8.4-3.1-13c-0.3-2.7-1.6-5.3-1.5-8.2
			c1,0,1.9,0,2.9,0c0.1,2.5,0.2,5,1.5,7.4c1.7,3.1,3.2,6.2,2.9,9.9c-0.1,1,0.3,1.9,1.4,2.3l-0.1-0.1c-0.6,1.3-0.4,2.4-0.1,3.8
			c0.4,1.5,2,2.9,1,4.4c-1.6,2.5,0.1,4.5,1.2,5.9c1.5,2,2.8,4.1,4.3,6.1c0.6,0.8,1,2,2.2,1.3c1.3-0.8,0.5-1.8-0.2-2.7
			c-3-4-3.4-8.9-4-13.6c-0.1-0.9,0.4-2.4,1.6-1.4c1.9,1.6,4.6,2.8,4.8,5.6c0.2,2.3,1.1,4,2.2,5.8c1.1-0.4,0.2-2.3,1.6-2.3
			c2.3,6.2,6.2,11.2,9.8,16.4c1.4,2,3.8,1.6,5.7,1.5c1.7-0.1,1-2.2,1.5-3.3c0.2-0.6,0.5-1.1,0.7-1.7c-0.1,0.1-0.2,0.2-0.3,0.3
			c1.8-0.9,1.8,1,2.7,1.6c0.9,0.7,2,2.2,3.1,1c1.7-1.9,2.3-0.9,3,0.6c0.3,0.7,0.9,1.3,1.7,1.1c0.9-0.2,0.9-1,1-1.7
			c0-1.4-0.1-2.8,0.8-4.2c1,1.5,0.7,2.8,0.8,4.1c0.1,1.4,0.2,2.8,2.1,2.8c1.6,0,3.5,0.6,4.2-1.7c1.5-4.7,6.2-8,5.7-13.5
			c0-0.4,0.7-0.9,1.1-1.4l-0.1-0.1c0,2.1,0.9,3.2,3.1,3c1.2-0.1,2.3,0.6,3.4,0.7c3.3,0.5,5.3,3.1,8.1,4.5c1,0.5,1.9,0.5,1.8-0.5
			c-0.3-2.1-0.9-4.2-1.3-6.3c-0.2-1.5-2-0.9-3.1-1.2c-0.6-0.2-1.2-0.4-1.3-1.1c-0.1-0.5-0.1-1.1,0.5-1.2c3.6-0.4,1.8-2.2,1.2-4
			c-0.6-1.9-2.6-3.5-1.4-6.3c2.7,4.4,4.3,9,7.5,12.5c0.6,0.7,1.1,1.4,2,0.9c0.7-0.4,0.8-1.3,0.4-1.9c-2.2-3.3-1.2-7.3-3.4-11
			c-3.2-5.4-5.9-10.8-10.8-14.9c-2.2-1.8-4.8-3.8-5-7.1c1,0,1.9,0,2.9,0c0.9,1.7,1.9,3.3,2.8,5c1.2,2.1,2.4,2.6,4-0.3
			c1.2,6.9,6.6,10.5,10,15.5c0.8,1.2,2.5,1.5,3.6,0.6c1.3-0.9,0.7-2.5,0.1-3.7c-1.6-3.2-4.2-6-4-9.8c0.2-2.6-0.1-5-1.3-7.3
			c1,0,1.9,0,2.9,0c0.9,9,5.1,16.6,10.4,23.7c1.8,2.4,1.8,5.7,4.5,7.6c2.1,1.5,3.4,1.8,5.1-1.3c0.1,6,3.4,9.4,6.6,12.9
			c-2.5-10-6.7-19.1-15.3-26.2c6.6-0.4,8.7,3.7,10.5,8.1c0.5,1.1,0.8,2.6,2.1,2.6c1.4,0,0.4-2,1.7-2.7c2.2,3.5,2,8.2,5,11.8
			c1-1.6,1.9-2.9,2.8-4.3c0.2,0.2,0.5,0.3,0.5,0.4c0.3,1.5,0.9,3.9,2.3,3.6c1.9-0.4,1.4-3.1,0.9-4.4c-1-2.7-0.9-4.7,1.1-7.1
			c1.2-1.5,0.7-4,0-6c-0.8-2,0.6-1.9,1.8-2l-0.1-0.1c0.5,7-1.3,13.8-1.5,20.8c-0.1,2.9,0.3,5.7,1.5,8.4c0.8,1.8,1.5,2.8,3.7,1.9
			c2.2-0.9,2.4-2,1.2-3.8c-3.5-5.5-2.4-11.4-1.5-17.9c1.6,3.3,2.2,6.1,2.2,9.1c0,6.5,2.3,12.3,5.7,17.8c0.6,1,1.3,2.2,2.3,1.9
			c1.3-0.4,0.5-1.7,0.2-2.7c-0.4-1.4,2.8-4.9,4.5-4.9c1,0,1.6-0.4,2-1.2l-0.1,0.1c1.1,0.7,2.2,1.7,3.6,0.7c1.3-1,0.7-2.1,0.4-3.3
			c-0.3-1.4-0.2-3.1,1.1-3.6c4.1-1.4,3.1-4.6,3.1-7.5c0-0.9-0.4-1.9,0.5-2.7c1.5,0.3-0.2,4.3,3,2.7c0.1,0.4,0.3,1,0.2,1.3
			c-1.4,2.1-0.5,4.1,0,6.2c0.5,2.2,0.6,4.1,3.5,5.1c2.3,0.8,1.3,3.6,0.8,5.5c-0.3,1.2-1.1,2.3-0.1,3.4c0.9,1,1.6,2.8,3.2,2.4
			c1.4-0.4,1.6-2,1.5-3.4c0-0.5,0-1,0.1-1.5c0.2-1,0.1-2.5,1.7-2.2c1.5,0.3,1.4,1.6,1,2.6c-0.5,1.3-1.2,2.6-0.3,4.2
			c1.4-1.4,2.1-3,2.4-4.8c0.8-4.5,4.5-8,4.3-12.8c0-1,0.7-1.7,1.5-1.8c1.2-0.2,1.1,1,1.3,1.7c0.8,2,1.6,4,0.5,6.2
			c-0.6,1.2,0.1,2.6,1.1,3.1c0.9,0.4,1.6-0.8,2.1-1.6c0.9-1.4,2.2-2.9,2.3-4.4c0.2-4,1.5-7.8,1.8-11.8c0.1-1.1,0.7-2.7-1.8-2.5
			c-1.4,0.1-0.7-1.3-0.3-2.1c1.7-4.2,4.7-7.8,5.8-12.4c0,2.9,1.9,6-0.9,8.8c-0.1,0.1-0.2,0.5-0.1,0.7c1.2,5.6-1.6,10.9-1.4,16.5
			c0.4,10.5-2.1,20.3-5.2,30.2c-1.5,4.9-1.7,10.6-3.2,15.2c-2.3,7.2,1,12.5,2.6,18.5c0,0.1,0,0.2,0,0.4c-0.3,7.3,0.1,14.5,1.5,21.6
			c0.3,1.7,0,3.3-1,5.1c-1.7,2.8,0.7,5.7,1.7,8.3c1.2,3.4,1.4,6.5,0.1,9.6c-0.8,1.9-0.3,4.2-1.9,5.9c-0.8,0.9,1,1.8,1.3,3
			c0.9,4.4-1.8,7.2-4.3,9.8c-2.1,2.2-3.2,5.9-1.7,8.8c0.2,0.3,0.7,0.5,0.7,0.8c0.2,6.5,2.3,2.6,4.5,1c1.7-1.2,3.7-2.1,5.2-3.5
			c1.4-1.3,2.4,1.4,3.8,0.4c0.7,1,0.3,1.7-0.3,2.8c-1.2,2.1-2.7,4.2-2.6,7.2c2.2-1.2,4.5-1.9,6.1-3.3c1.5-1.4,3.1-1.3,4.1-0.4
			c1.1,0.9,0.7,2.7,0.2,4.1c-1.2,3-2.8,5.8-2.6,9.2c-2.7,2.8-4.3,14.8-2.3,18.5c0.6,1.1,0.2,3.1,2.3,3.2c-1.2,5.5,1.1,10.6,2.1,15.8
			c1-2.8,0.9-5.7,0.2-8.2c-0.7-2.5,0-5.6-2.5-7.5c0.3-1.4,0.2-2.8-0.5-4.2c-1.1-2-1.1-4.2-0.6-6.3c0.9-3.8,0.9-7.6,1.1-11.4
			c1.6-1.4,2-3.5,2.7-5.3c0.3-0.8,0.9-1.2,1.7-1.1c1.5,0.2,0.2,1,0.3,1.6c0.1,0.6,0,1.5,0.3,1.7c5.1,2,5.4,7.5,7.6,11.3
			c1.6,2.7,4.7,4.3,5.2,7.9c0.8,6.2,3,12.2,6.4,17.1c2.5,3.6,3,7,2.5,10.8c-0.8,5.6,3.8,7.6,6.9,10.3c1.1,1,2.5,1.8,3.7,2.9
			c2.4,2.3,4.9,4.5,7.4,6.7c3.2,2.8,5.1,6.6,7.3,10.1c2.3,3.6,5.1,6.9,7.2,10.7c1.8,3.2,3.1,6.8,4.9,9.9c2.1,3.7,1.9,7.9,3.8,11.5
			c0.4,0.8,0.2,1.9,0.2,2.8c0.1,4.1,1.2,8,2.8,11.8c0.7,1.7,0.4,3.6,1,5.4c2.2,6.8,5.9,12.9,8.1,19.7c1.7,5.3,3,10.7,4.5,16.1
			c0.9,3.1,1.1,6,1,8.9c-0.2,4.5,1.8,7.2,5.6,9.1c1.3,0.7,2.7,1.7,3.3,2.9c0.8,1.6,1.4,2.8,3.2,3.3c0.6,0.1,1.5,1.1,1.4,1.4
			c-1.3,3.4,2,4.5,3.2,6.6c-2,1-3.1-2.4-5.4-0.8c1.9,1.4,3.1,3.7,6,2.7c-0.9,1.4-0.3,2.2,1,2.9c1.4,0.7,2.7,1.5,3.9,2.5
			c0.5,0.4,1.3,1.1,0.8,1.8c-0.5,0.7-1.3,0.5-1.8-0.2c-0.5-0.7-1.4-0.9-1.8-0.2c-0.7,0.9,0.3,1.6,0.9,2.1
			c5.1,3.8,10.2,8.2,13.2,13.6c1.9,3.4,4.2,6,6.7,8.6c0.1,0.1,0.2,0.2,0.2,0.2c0,0.3,0.1,0.9-0.1,0.9c-4.5,1.5-0.4,2.9,0.2,4.1
			c1.8,4,4.8,7.4,6.2,11.8c0.9,2.8,3.8,5,5.5,7.6c1.5,2.2,2.7,4.6,4,7c0.1,0.1,0.1,0.2,0.1,0.3c-3.1,5.3,1.7,8.9,2.6,13.3
			c1.3,6.4,4.3,13.2-0.1,20.1c-0.9-4.1-3.3-7.2-4.9-10.7c-0.9-1.8-3.9-2.2-5.2-4.2c-0.8-1.3-2.3-2.1-2-3.9c-1.8-0.6-1.5-4.2-4.5-3.1
			c-4.1-2.9-6.6-7.2-9.7-11c-4.4-5.5-8.3-11.5-15.1-14.7c-1.5-0.7-2.7-2.5-3.7-4.1c-1.1-1.9-2.2-3.6-4.6-4.5
			c-1.6-0.6-2.5-2.7-3.7-4.1c-3.6-4.1-3.9-9.5-4.9-14.7c-0.4-2-0.6-4-1.1-7.1c-1.4,3.5-0.5,6.1-0.8,8.6c-0.3,2.2-0.3,2.8-3.5,3.2
			c-8.2,1.1-11.9-5-16.6-8.9c-4.4-3.7-8.3-8.6-13-11.9c-3.5-2.4-7.6-4.5-12-5.7c-4.3-1.2-8.5-2.7-12.7-4c-0.7-0.2-1.4-0.2-2.1-0.3
			c-4.1-0.4-8.3,0.3-12.5-1.3c-3.3-1.2-6.1,2.1-9,3.4c-3.8,1.6-7.3,3.5-11.6,3.8c-3.1,0.2-5.9,1.4-8.3,3.8c-1.9,1.9-4.6,3.5-7.2,4
			c-2.2,0.4-4.2,1.4-6.2,2c-1.7,0.5-2.6,3.6-4,5.5c-2.8,3.6-4.4,8-7,11.7c-0.6,0.9-1.2,1.7-2.3,1.1c-1-0.6-0.9-1.6-0.1-2.4
			c0.8-0.7,1.2-1.4-0.1-1.8c-0.7-0.2-1.7-0.3-2.1,0.8c-0.9,2.7-2,5.3-2.9,8.1c-1.7,5.2-2.5,10.6-4.6,15.8c-2.2,5.4-4.3,11-6.4,16.6
			c-0.8,2.2-1.8,4.5-3.3,6.2c-4.7,5.1-8.1,11.1-12.2,16.6c-0.6,0.8-0.4,1.6-0.5,2.4c0,4.1,0.1,8.2-1.4,12.2
			c-0.8,2.1-1.9,1.4-2.8,0.6c-3.2-3-6.2-6-8.2-10c-0.4-0.9-1.3-1.9-2.1-2.1c-2.4-0.6-3.4-2.4-4.2-5c-2,4-4.3,7.3-5.2,11.2
			c-0.9,3.8,1.4,7.8-0.5,11.9c-4.2-4-8.7-7.5-12.3-11.8c-2.3-2.7-4.6-5.5-6.3-8.8c-2.1-4-6.9-5.5-9.6-9.1c-1.4-1.9-3-3.7-4.4-5.6
			c-3.3-4.7-6.3-9.6-8-15c-0.7-2.2-2.4-3.4-3.7-4.9c-4.1-4.9-7.4-9.8-9.4-16.3c-1.7-5.6-1.5-11.4-3.4-16.8c-0.3-0.9,0.5-0.9,0.6-1.4
			c0.3-0.9,0.7-2.4-0.2-2.6c-5.3-1.4-2.7-5.9-2-7.8c1.4-4.2,0.9-8.9,3.8-12.6c0.2-0.2-0.1-1-0.4-1.3c-0.4-0.4-0.8,0.2-1.2,0.3
			c-1.6,0.4-2.1,2.4-3.9,3.1c-0.9-4.6,0.6-8.4,2.5-12.3c2.5-5,4-10.7,7.9-14.9c3.4-3.5,6.9-7.2,11.9-8.5c1.8-0.5,1.8-2,0.8-2.7
			c-1.3-1-1-2-1-3.1l-0.1,0.1c0.8-0.4,1.1,0.1,1.6,0.8c3.4,4.4,5.7,9.8,10.7,12.8c2.2,1.3,3.6,5.5,7.3,2.2c0.6-0.5,0.9,0.3,1.4,0.7
			c3.9,3,3.9,3,8.8,1.7c0.6-0.1,1.1-0.5,1.7-0.7c1.4-0.3,2.1,0.4,2.4,1.7c-1.6,0.7-3.3-0.3-4.6,1c0.3,0.8,1,0.6,1.4,0.9
			c2.4,1.6,4.8-1.3,7.8,0.8c2.2,1.5,6.1,2.3,9.7,1.7c2.1-0.3,3.3-2.1,5.2-2.7c0.8-0.3-1.4-1.5-2-2.4c-0.3-0.5-1-0.9-0.4-1.5
			c0.2-0.2,0.9-0.3,1-0.2c2.5,4.3,6,1.2,9.2,1.5c6.3,0.6,9.2-3.7,12.9-7.3c1.6-1.6,1.5-4.3,3.3-5.2c1.5-0.7,2.9-1.6,4.6-2.3
			c-1.9-1.5-2.8-2.8,0.1-4.1c0.9-0.4,1.7-1.4,2.2-2.3c1.3-2.5,2.4-4.9,5.3-6c0.6-0.2,0.8-0.6,0.6-1.4c-1-3.8-2.3-7.4-3-11.2
			c-0.9-4.5-3.5-8.7-4.7-13.3c-1.6-5.9-1.6-12-1.8-17.9c-0.2-6.4,1.9-12.9,5.8-18.4c1.9-2.7,4.2-5.2,5.6-8.2
			c1.5-3.5,2.2-7.5,3.2-11.2c0.4-1.6,1.5-2.7,3-3.2c1.6-0.5,2.4,0.7,3,2c1.7,3.5,4.1,6.9,4.1,10.8c0.1,4.4,1.8,8,3.8,12
			c1-3.4,2.3-3.4,4.2-0.9c1.8,2.3,3.6,4.7,5.3,7.1c1.9,2.7,3.5,5.4,7.7,5.3c2.3-0.1,5.1-0.1,7.1,1.6c2.3,2,5,2.8,8,2.8
			c1.2,0,2.9,0.6,3.2-0.7c0.3-1-0.5-2.6-1.4-3.5c-6.4-6.6-11.8-14.1-16.9-21.7c-4-5.9-8.9-11-15.9-13.4c-1.4-0.5-3-1.2-2.6-2.3
			c0.6-1.7,2.7-1,3.7-0.3c4.3,2.7,10,3.7,12.3,8.9c2.4,5.4,10.5,6.5,10.3,13.8c0,0.2,0.3,0.4,0.4,0.5c4.1,2.6,5.2,7.5,8.6,10.8
			c2,1.9,2.6,3.5,4.3,0c1.7,2,0,6.5,4.7,5.4c0.1,0,0.4,0.8,0.6,1.3c1.7,4.5,5.4,7.2,9,10.1c0.9,0.7,1.8,1.6,2.8,0.7
			c0.8-0.8-0.3-1.6-0.7-2.4c-4.1-8.5-10.4-15.7-15.2-23.8c-4.9-8.5-9.6-17.1-14.3-25.7c-3.1-5.6-6.3-10.6-12.3-13.5
			c-2-1-4-1.1-5.9-0.5c-4.5,1.4-8.9,3.1-13.4,4.8c-0.9,0.3-1.7,0.8-1.8-0.6c-0.2-4.2-2.2-8.1-2.8-12.1c-1.5-9.9-7.5-17.6-13.2-25.1
			c-8.6-11.3-21.5-17.3-33.6-23.7c-10.1-5.4-21.6-7.8-33.2-7.7C111.8,175.3,103,172.7,96,179.5L96,179.5z M125.7,401.3L125.7,401.3
			c-0.8,0.2-1.4,0.8-1.2,1.8c0.4,1.5,1.7,0.1,2.4,0.8c0-0.2,0-0.4,0.1-0.6c1.8,0.6,2.1,2,1.2,4.5c-2.3,6.1-4.7,12.3-4.6,19
			c0,0.3-0.2,0.8-0.4,0.9c-2.8,0.5-1.9,2.8-1.9,4.4c-0.1,6.2-0.3,12.4,0.3,18.5c0.4,3.7,0.9,7.6,2,11.2c0.7-4.2,0-8.4,0.3-12.5
			c0.6-9.3,2.2-18.5,3.7-27.8c0.3-1.9,0.7-4.3,2.6-5.7c0.9,3.2,0.7,6-0.7,9.2c-3.3,7.8-2.4,16.1-1.9,24.6c1.6-0.6,2.6-1.3,2.2-2.7
			c-1-3.3,0.1-6.5,0-9.7c-0.3-7.4,2.4-13.7,5.8-20c1.2,4.6-1.5,9.2,0.1,13.8c0,0.1,0,0.3,0,0.4c-2.6,3.5-0.8,7.3-0.9,11
			c-0.1,2.5,1.1,4.6,2.3,6.7c0.6-5.1,0-10.3,1.2-15.4c0.2,10.3,1.3,20.3,5.7,29.8c-2-13.9-2.7-27.6,2.9-40.8
			c-0.9,4.5-0.8,9.1-0.8,13.7c0.1,11.5,0.1,11.5,2.2,12.8c0.5-12.4,2.1-24.7,5.7-37c1.6,1.5-0.1,4.6,2.2,4.3
			c1.4-0.2,0.8-2.9,0.8-4.6c0-1.7,0.2-3.5-0.4-5c-0.7-1.7-0.4-3.1,0.5-4.4c2.1-3,0.5-6.7,2.2-9.8c0.4-0.8-0.5-1.7-1.2-2
			c-3.4-1.7-3.4-1.6-1.8-5.1c0.3-0.7,0.8-1.4,0.4-2c-0.6-0.8-1.6-0.5-2.3,0c-1,0.6-1.9,1.5-2.8,2.2c-3.1,2.3-5,5.9-8.6,7.4
			c1.1-1.5,2.3-3,3.3-4.5c0.5-0.7,1.9-1.1,1.3-2.3c-0.7-1.3-1.9-0.2-2.9-0.3c0.5-1.6,3-3.2,0-4.9c-1.6-0.4-2.8,0.5-3.8,1.5
			c-1.1,1.1-2.1,2.3-3.7,2.7c-3.5,1-5.6,4-8.3,6.1c-1.1,0.8-1.7,2.1-0.9,3.5c-0.6,1-0.9,2.1-0.7,3.3
			C124.8,398.3,126.2,400.3,125.7,401.3z M83.6,68.3c1,2.3,2,4.5,5.1,3c1.2,0.6,2.4,0.6,3.7-0.1c0.7-0.4,2.1-0.4,2.5,0.8
			c0.3,0.9-0.5,1.6-1.3,1.9c-1.2,0.5-2.6,1.1-1.4,2.5c1.5,1.7,2.5,3.9,5,4.9c0.1-0.6,0.1-1,0.1-1.3c0.1-0.9-1.6-1.7-0.6-2.5
			c1.4-1,2.3,0.6,2.9,1.4c3.5,5,8.5,8.7,12.5,13.2c3.9,4.4,8.3,8.4,12.6,12.5c0.6,0.6,1.4,1.3,2.2,0.5c0.9-0.9-0.4-1.5-0.9-2
			c-1.3-1.4-2.8-2.6-4-4c-1.5-1.7-2-3.7,0.1-5.3c2.2-1.7,3.2,0.3,4.3,1.8c0.9,1.2,1.5,2.5,2.7,3.7c5.3,5.1,12.5,7.6,17.5,13
			c0.4,0.5,1.3,0.9,2,0.9c4.1,0,6.5,2.8,9.4,4.9c2.3,1.7,4.6,3.7,7.9,4c-0.6-2.2-3.8-2.1-3.5-4.8c10.2,3.2,16.5,12.4,26.3,15.9
			c-1.6-2.1-3.7-3.7-5.5-5.5c-1.2-1.2-3.7-2.8-2.5-4.1c1.4-1.6,2.8,1,4.2,1.9c2.6,1.6,4.3,4.1,6.3,6.2c0.8,0.8,1.8,1.2,2.6,0.5
			c1-0.9-0.2-1.4-0.7-2c-1.4-1.6-2.8-3.3-4.2-4.9l-0.1,0.1c3.8,0.8,7.4-3.8,11.3-0.5c0.1,0.1,0.7-0.1,1-0.3c2.3-2,3.7,0,4.1,1.5
			c0.5,1.7,1.6,3.2,2,5c0.3,1.4,0.8,1.4,2.2,1.7c4.8,1,4.1-0.7,2.4-3.7c-0.5-0.9-0.2-2.1-0.4-3.2c-0.1-0.8,0.1-1.8-1-2.1
			c-2.4-0.5-4-2.2-5.9-3.4c-10.4-6.6-19.8-14.4-29.8-21.6c-9.3-6.7-17.4-14.7-25.6-22.7c-10.1-9.8-20.7-19.2-30.8-28.9
			c-2.1-2-3.3-3.4-4.2,0.7c-1.7-1.5-1.6-4-3.6-4.7c-3-1.2-5.9,1-5.9,4.7c0,4.9,0.3,9.8-1,14.7c-1,4-5,7.3-9.2,7.1
			c-1.9-0.1-4.4-0.7-5.6,1.8C86.8,70.8,86.4,67.4,83.6,68.3c0.1-0.2,0.2-0.5,0.4-0.9c0.4-1,1.7-2.6,0.1-2.8
			c-1.2-0.1-2.7-1.6-3.5-0.4c-0.8,1.1,0.6,2.2,1.3,3.2C82.3,68,82.8,68.4,83.6,68.3z M117.7,393.9c0.7,1.2-0.5,2.8,1.1,4.2
			c0.6-2.4,2.6-4.1,2.2-6.7c-1.8,0.4-1.4,3-3.4,2.7c-0.1-1,0-2.8-1.6-1.7c-1.8,1.2-3.5,2.9-2,5.6C115.6,396.8,115.1,394,117.7,393.9
			z M275.4,288c0.1-1,0-1.9,0.2-2.9c0.5-3.4,0.1-3.7-3.6-2.4C273.1,284.4,274.3,286.2,275.4,288c0.4,3.7,2.7,6.1,5.5,8.4
			c-1.2-2.3,0.4-3.4,2.4-5.1C279.4,291.7,277.8,289,275.4,288z M284.1,263.2c-0.3-3.1-2.3-4.9-4.6-4.4c-0.7,0.2-1.1,0.4-1.1,1.1
			c0,0.4,0.3,1.3,0.6,1.1C281.9,259.2,282.3,262.9,284.1,263.2c-0.2,0.6-0.7,1.1-1.4,1.4c-0.7,0.4-0.6,0.9-0.2,1.5
			c0.3,0.5,0.8,1.4,1.3,0.9c2-1.9,2.5,0.4,3.2,1.2c2,2.4,3.8,5,5,7.8c0.8,1.9,2.1,3.1,4.3,3.3c-2.9-4.6-5.1-9.6-8.8-13.6
			C286.6,264.8,286.2,262.9,284.1,263.2z M226.9,227.4c-0.3,2.3,0.2,4.3,2.7,5.4C228.6,231,229.2,228.6,226.9,227.4
			c-1.3-6.4-2.5-13-3.7-19.5c-0.1-0.7-0.7-1.2-1.5-1.4c0-1,0.2-2,0-2.9c-0.4-1.5,1.9-3.8,0.1-4c-2.2-0.3-0.9,2.6-1.5,3.9
			c-0.7,1.6-1,3,1.5,2.8c-0.6,5.2-0.1,10.3,1.6,15.3C224,223.8,224.7,226.1,226.9,227.4z M183.6,365.5c1.2-1.1,1-2.2-0.1-3.3
			c-0.5-0.5-1-1.1-1.8-0.6c-1.3,0.8-0.7,2-0.6,3.2c-1.6-1.9-2.8-1.1-3.9,0.6c-1.6,2.5-3,5.2-4.8,7.5c-7.9,9.9-9.9,21.8-12.6,33.7
			c-1,4.3-1.2,8.7-2.4,13c-1.1,3.9-1.6,8.3-1.2,12.4c0.3,3.1,0.9,6.2,0.5,9.3c-0.4,3.1,0.4,6,1.1,9c1.2-19.2,5-37.7,13.2-55.8
			c1.7,3.9-2.4,7,0,11c3.1-7.2,7.2-13.3,9.6-20.2c0.6-1.9,1.3-4.1,4.1-3.3c1.1,0.3,1.1-0.3,1.5-1c1.4-3,3.5-5.7,3.8-9.2
			c0.1-1.3,0.9-2.1,2.2-2.6c0.8,1.6-0.1,2.7-0.7,4.1c-0.6,1.4-0.2,1.8,1.5,1.5c1.2-0.2,1.4,0.6,1,1.1c-3.2,4.1,0.4,7.5,0.7,11.4
			c1.5-0.9,0.6-2.5,1.8-3.3c0.9,1.5,1.8,2.9,2.7,4.4c0.9-3.1,0.6-6.2,0.9-9.3c0.4-3.6-1.7-8.7,4.8-9.5c0.4,0,0.6-0.9,1-1.4
			c1.9-2.3,3.1-5.5,7-4.9c0.1-1,4,0,1.2-2.4c2.4-0.7,0.8-5.3,4.5-4.7c0.8,0.1,2,0.5,2-0.7c0.1-1-0.2-2.4-0.9-3
			c-1.9-1.7-4.2-1.3-6.3-0.2c-0.3,0.1-2,1.6-0.2,2.5c1.4,0.7,1.2,0.9,0,1.8c-3.8,2.8-8.6,4.9-9,10.6c0,0.7-0.5,1.2-1.2,0.7
			c-1.9-1.4-3.6,0-5.7,0.5c-0.1-3.7,4.3-4.6,4.5-7.8c-1.4-1.3-3,0.5-4.8-0.1c2.2-3.7,7.4-2.7,9.5-7.8
			C197.2,355.1,189.9,359.4,183.6,365.5z M110.7,97.8c0,1.2-0.1,1.6,0,1.8c4.2,6,8.7,11.8,14,16.7c7.1,6.5,16,10.6,23.2,17
			c0.4,0.3,1.3,0.5,1.7,0.3c1.6-1,1.7-0.2,2.3,1.2c3.1,7,3,14.7,4.9,22c1.8,7,2.4,14.3,1.8,21.7c-0.2,3.2,0.6,5.6,4.2,7
			c2.5,1,4.9,2.8,7.4,4.1c8.1,4.3,14.9,9.9,20.5,17.5c3.1,4.2,6.3,8.5,9,13c0.7,1.2,0.9,2.7,2.5,2.6c1.4-0.1,2.3-1.1,2.8-2.8
			c-5.2-0.1-2.4-3.5-2.6-5.7c1.6-0.3,2.8,1.9,4.2,0.8c1.6-1.3-0.6-2.5-0.6-3.8c-0.2-4-2.4-8,0.2-11.8c2.5-3.7,5.2-7.2,7.9-10.7
			c0.8-1.1,1.7-2.4,2.9-3c2.1-1.1,2-2.7,2.1-4.6c0.2-3.8-2-7.2-1.7-11c0.3-3.8-1.7-5.9-4.3-8.1c-8.4-7-18.9-10.2-28.3-15.3
			c-8.4-4.5-17.5-7.9-25.2-13.8c-2.4-1.8-4.3-4.2-6.7-5.8c-4.4-2.9-8.2-6.9-12.8-9.2c-4.2-2-7.1-5.8-11.8-7.2
			c-2.8-0.8-5.9-2.1-8.1-4.9C117.5,102.8,114.2,100.7,110.7,97.8z M228.6,331.7c1.1,1.2,1.6-3,2.5-0.1c1.2,4.2,2.3,0.6,3.4,0
			c0.9-0.5,1.3-2.8,1.8-2.2c2.7,3.4,1.8-1.6,3-1.2c0.3-1.7,1.5-2.7,2.7-4c3.2-3.3,2.8-6.1-0.7-8.9c-0.9-0.7-1.4-1.6-1.5-2.8
			c-0.1-0.9,0.4-2.2-1-2.7c-1,1.1-0.4,2.5-0.9,3.6c-0.4,0.9-1.1,1.2-2.1,1.1c-0.8-0.1-1.4-0.4-1.1-1.4c0.3-0.9,0.8-1.9-0.4-2.5
			c-1.7-0.8-1.5,1.7-3.1,1.6c-1.1-3.4-2.8-6.6-4.5-9.9c-0.5-1-1.4-2.1-2.3-1.8c-1.3,0.5-0.7,1.7-0.1,2.7c1.5,2.5,1,5,0.4,7.3
			c-6-11.4-14.7-21.2-18.5-33.7c-1,1.8-0.8,3.3-0.2,4.8c0.5,1.1,1.7,2.4-0.2,2.9c-1.5,0.4-1.3-1.3-1.6-2.3
			c-1.3-3.3-1.3-7.2-4.1-10.3c0.4,4.5-1.8,7.2-5.5,9c-0.3,0.1-0.4,0.6-0.5,0.9c-0.6,3.7-1.3,7.5-1.2,11.1c0.1,4.4,1.3,8.9,1.8,13.4
			c0.5,5.8,3.9,11.1,7.9,15.7c-0.9-4.2-1.8-8.4-2.9-13.3c3.4,3.2,1.7,7.5,4.8,9.6c1.4,1,2.1,2,2.5,3.7c0.4,2.3,4.5,5.5,5.3,4.5
			c2.9-3.8,2.9-0.1,4.1,1.2c0.5,0.6,1,1.9,2.3,1c1.2-0.8,0.7-1.6,0-2.4c-1.8-2-0.9-3.3,0.9-4.4c1.7,1.6,2,3.7,2.6,5.7
			c1.4-1,0.6-2.5,1.4-3.5c0.8,1.6-0.1,3.4,1,4.9c2.5-4,0.1-8.5,1.2-13.1C229.1,321.5,227.3,327,228.6,331.7z M116.3,385.7
			c-1.1-0.6-1.3,0.1-1.7,0.1c-1,0.2-1.5,1.9-2.8,1.2c-1.2-0.7,0.1-1.7,0-2.6c0-0.6,0.1-1.3-0.8-1.4c-0.9-0.1-1.8,0-2,1.1
			c-0.3,1.3-1.8,2.3-2.2,1.5c-2-3.9-3.4,0.1-5.1,0.3c-0.5-2.5,1.2-4.2,1.9-6.1c0.3-0.8,1.4-1.7,0.2-2.4c-1-0.5-1.7,0.4-2.2,1.3
			c-0.7,1.3-1.4,2.6-2.2,4c-1.9-2.4-1.9-4.3,0.7-5.9c0.6-0.3,1.1-1.1,1.3-1.7c0.4-1.4,1.4-3-1.1-3.8c-2.1-0.7-3.5-0.3-3.6,1.9
			c-0.1,1.8-0.9,2.7-1.9,3.9c-3.6,3.8-6,8.1-6.3,13.5c-0.1,1.8,2.1,2.9,1.3,4.2c-2.1,3.5-1.1,7.5-2,11.2c-1.3,5.3-0.8,10.7,0.1,16.1
			c1-4.1,0.2-8.4,1.9-12.5c0.2,2.6,0.4,5.2,0.6,7.8c0.7-1.8,0.8-3.4,0.9-5.1c0.1-0.7,0.1-1.7,1.1-1.5c0.6,0.1,1.6,0.5,1.5,1.3
			c-0.5,4.1,3.3,7.3,2.5,9.8c-0.9-2.4,3.2-5.7,1.8-9.8c-0.4-1.3-0.3-2.5,1-3.1c1.8-0.9,2.4-2.2,2.4-4.1c0-1.5,1-2.5,2.5-3.5
			c0.4,2.9-2.4,5.3-0.4,8.4C108.2,401.6,111.7,393.4,116.3,385.7z M85.8,85.2c-1.4,0.4-1.8-0.3-2.1-1.1c-0.4-1.2-1.3-1.5-2.3-0.9
			c-1,0.6-0.8,1.7-0.4,2.6c0.5,1,1.4,1.8,2.5,1.9c2.1,0.3,3.3,1.3,3.7,3.4c0.3,1.1,1.2,1.9,2.1,2.4c2.8,1.3,4.9,3.3,6.1,6.3
			c0.3,0.8,0.6,2.8,2,1.7c1.4-1,4.5-1.6,4-3c-1.2-3-0.9-6.2-2.4-9.2c-3.7-7.2-11.8-10-16.2-16.5c-1.3-1.8-3-3.4-4.8-5.4
			c0.1,4.3-3.5,6.5-4,10.3c2.2,0.4,5.6-0.9,5.5,3.3c0,0.5,1,0.5,1.6,0.5C83.8,81,85.3,82.3,85.8,85.2z M190.4,277.9
			c-1.8,7.2-6.2,13.7-5.3,21.9c1.5-0.9,0.6-2.5,1.9-3c0.8,1.1,1.6,2.2,2.6,3.6c0-4.2,0.3-7.8,1.1-11.5
			C191.4,285.4,191.6,281.6,190.4,277.9z M218.9,221.9c0.5-5.3-1.5-10.3-1.5-15.6c0-3.4,1.6-6.5,1.7-9.9c0-0.6,0.5-1.2-0.4-1.4
			c-0.5-0.1-0.9,0.2-1.1,0.7c-2.9,7.2-4.1,14.6-1,21.9C217.2,219,216.4,221.6,218.9,221.9z M120.5,414.5c-3.9,7.2-5.4,22.9-2.9,29.3
			C119.6,433.7,118.6,423.9,120.5,414.5z M197.6,42.4c-0.8,3.6-2.3,7.1-2.2,10.8c0,1.2-0.2,2.7,1.4,2.9c1.4,0.3,1.7-1.1,2.1-2.1
			C200.9,50,199.8,46.2,197.6,42.4z M301.3,298.2c0.4-0.2,0.8-0.4,1.1-0.7c-0.9-1.6-1-3.4-1.6-5c-0.8-2.3-2.6-4.2-4.6-5.8
			c-0.5-0.4-1.4-0.4-2.1-0.2c-0.6,0.2-0.7,1-0.3,1.5C296.3,291.5,298.8,294.8,301.3,298.2z M190.6,377.1c-0.5,0.6-0.8,0.8-0.8,1.1
			c-0.9,5.4-2.5,10.6-4.5,15.6c-0.2,0.5-0.2,1,0.3,1.2c0.4,0.1,1.1,0.2,1.4,0c1.3-0.8,2-2,2.1-3.6c0.1-2.4,0.5-4.8,0.5-7.2
			C189.5,381.8,192.4,380.1,190.6,377.1z M179.7,60.4c-0.3,0.1-0.6,0.2-0.9,0.4c0.2,3.8,2.7,6.9,4,10.4c0.3,0.9,1,1.8,2.2,1.2
			c1.2-0.6,0.8-1.7,0.3-2.5C183.6,66.6,181.6,63.5,179.7,60.4z M82.2,383.1c4.2-1.9,5.6-5,6.5-8.5c0.2-0.6,0.2-1.2-0.4-1.6
			c-0.2-0.1-0.9,0-0.9,0.2C86.2,376.5,82.9,378.8,82.2,383.1z M307.5,320.7c0.8-3.8,0.8-3.8-1.6-10.7
			C303.8,313.7,304.6,317,307.5,320.7z M73,53.7c-1,0.4-0.8,0.8-0.3,1.8c1.4,2.4,3.5,4.1,5.3,6.2c1,1.1,1.7,0.4,2.3-0.4
			c0.7-1,0.1-1.5-0.9-1.8c-2.1-0.7-3.2-2.4-4.4-4C74.5,54.7,74,54,73,53.7z M57.5,45.2c1.7,2.3,3.2,4.3,4.8,6.2
			c0.4,0.5,1.3,0.7,2,0.1c0.4-0.4,0.3-0.8,0-1.3C62.6,48,61.4,45.2,57.5,45.2z M268,361c-1-1.5-2.4-2.7-4.4-3.2
			c-0.9-0.2-1.1,0.7-1.4,1.3c2.1,0.2,1.2,4,4.1,3.3C267.1,362.3,268.1,362.6,268,361z M118.2,445.6c-0.9,4.7,2,8,1.7,11.9
			C121,453.6,120.6,449.8,118.2,445.6z M266.7,332.5c2.3,0.1,4.3,1.3,5.5-1c0.4-0.8,0.8-2.5-1-2.9
			C268.3,328.1,268.2,330.7,266.7,332.5z M225,51.3c-3.2,2.2-4.4,4.9-5.9,7.4c-0.2,0.3-0.1,1,0.2,1.3c0.6,0.7,1.1,0,1.5-0.4
			C222.5,57.4,224,54.9,225,51.3z M189.3,304.6c-0.3,4.7-0.3,9.3,1.4,13.7C191.6,313.6,190.1,309.2,189.3,304.6z M202.3,68.9
			c0.7-2.6,0.5-5.4,1.6-7.9c0.2-0.4-0.2-0.9-0.8-1.1c-0.7-0.1-1.3,0.3-1.3,0.9C201.6,63.5,201,66.2,202.3,68.9z M214.9,286.4
			c-0.7,4.6,2.2,4.9,5.7,6.1C218.6,289.7,217,288.2,214.9,286.4z M249.1,212.4c-1,2.4-0.4,4.4,0.3,6.4c0.1,0.4,1,0.4,1.3,0
			c1.6-2-0.2-3.6-0.7-5.4C249.9,213.2,249.6,213,249.1,212.4z M123.5,411.8c-0.7,2.5-3.4,4.6-1.1,7.6
			C122,416.7,125.2,414.7,123.5,411.8z M327.9,386.1c1.9,2.8,4.2,3.5,7.6,4.2C333.2,387.6,331.2,386.2,327.9,386.1z M277.6,307.5
			c-0.7,0.2-2-0.5-1.8,0.8c0.2,1.1,1.2,2.1,2.6,2c1-0.1,2.6,0.3,2.5-1.3C280.7,306.9,278.8,308,277.6,307.5z M212.2,226.2
			c0.6-0.4,1.5,2,1.9-0.2c0.2-1.3-1.1-1.8-1.7-1.9c-1.1-0.2-2.1,0.6-2,1.8C210.6,227.7,211.6,226,212.2,226.2z M161.9,40
			c-1,3,0.3,4.5,1.8,6.6C164.7,43.9,163.3,42.3,161.9,40z M185.7,422.9c-0.1-2.7,2.5-3.9,0.8-7C186.6,418.7,183.7,419.7,185.7,422.9
			z M310.5,370.9c2,0.4,4,0.9,6,1.1c0.3,0,0.4-1,0-1.2c-1.8-1.4-3.8-1-5.8-0.5C310.6,370.3,310.6,370.5,310.5,370.9z M251,364.8
			c4.1,0.8,4.1,0.8,5.8-1.9C254.5,362.5,253,364.4,251,364.8z M101,419.9c-0.1,1.9-2.6,4,0.3,6.1C101.9,423.8,101.6,421.8,101,419.9
			z M293.5,304.9c0.1-1.1-0.6-1.8-1.5-2.1c-0.9-0.3-1.6,0.3-1.8,1.2c-0.1,0.9,0.3,1.7,1.3,1.8C292.3,305.8,293.2,306.1,293.5,304.9z
			 M163.6,429.8c0.7-2,1.1-4,0-6C162.7,425.8,163,427.8,163.6,429.8z M185.1,403.9c2.2-2.3,2.2-2.3,1.4-4.8
			C186.9,400.9,184.3,401.6,185.1,403.9z M154.1,436.7c0.8-2.7,0.8-4.5,0-6.3C153.6,432.2,153.2,434,154.1,436.7z M284.7,315.5
			c-0.5,0.4-1.6,0.9-1.5,1.3c0.2,1.1,1.2,1.7,2.2,2c0.7,0.2,1.3-0.2,0.9-1C285.9,317,286,315.8,284.7,315.5z M224.3,336
			c1.6-1.3,2.5-2.4,1.8-4c-0.3-0.5-1.1-0.9-1.5-0.5C223.5,332.8,224,334.2,224.3,336z M296.6,310.1c-0.1-1.3-1-1.4-2-1.4
			c-0.7,0-1.7,0.1-1.4,1.1c0.3,1,1.1,1.8,2.3,1.8C296.5,311.6,296.6,310.9,296.6,310.1z M301.5,307.1c1.4-0.1,2.7,0.6,3.3-0.9
			c0.3-0.6-0.1-1.3-0.8-1.4C302.4,304.5,302.1,305.7,301.5,307.1z M299.4,359.3c0.1,2.6,2.7,1.4,3.7,2.5c0.2-0.3,0.6-0.6,0.5-0.8
			c-0.3-1.8-2.2-1.1-3.2-1.8C300.2,359.1,299.8,359.3,299.4,359.3z M305.8,372.7c-0.7,2.7,0.6,3.9,1.8,5.5
			C308.9,375.6,307.1,374.6,305.8,372.7z M147.2,380c2.9,0.4,4.1-1.2,6.4-2.3C150.5,376.6,148.9,377.6,147.2,380z M209.5,197.6
			c-1.1,2.8-1.1,4.6,0.2,6.4C210,202.2,210.5,200.3,209.5,197.6z"/>
		<path d="M97.4,338.7c-2.7-1-1.8-3.9-2.5-5.8c-1-2.5-1.2-5.6-1.7-8.5c-0.8-4.5,1.7-8.6,2.2-12.9c0.6-5.9,2.8-11.6,1.8-17.6
			c-0.6-3.7-1.7-7.3-2.7-10.8c-0.6-2.1-5.1-5.2-8.3-5.4c-2.9-0.2-5.8,0-8.7-0.1c-0.9,0-2,0.3-2.5-0.9c-2.2-5.1-1.8-10.1,0.5-15.1
			c1.3-3,2.1-6.3,5-8.4c0.4-0.3,0.2-1.6,0.2-2.4c0-3.9-0.3-7.8,0-11.6c0.3-4.5,1.3-8.9,3.6-12.8c0.9-1.5,0.8-2.1-0.3-3.5
			c-2.9-3.8-1.7-9,2.4-12c2-1.4,3.3-3.6,3.5-5.7c0.5-5.2,2.1-10.2,1.8-15.5c-0.2-3.4,0.9-6.8,2.9-9.8c0.4-0.5,0.8-0.3,1.3-0.3
			c0,0-0.1-0.1-0.1-0.1c0.7,1.9-1.3,3-1.4,4.7c-0.5,6.2-1.8,12.4-1.3,18.7c0.1,1.7-0.6,3.4-1.1,5.2c-1,3.1-4.2,3.7-5.8,6
			c-1.8,2.6-0.7,4.4,0.2,6.9c0.9,2.3,2.3,2,4,2c5.3,0.1,10.6-0.6,15.9,0.1c1.7,0.2,2.8,0.7,3.9,2c3.9,4.3,6.9,9.3,10.2,14
			c3.3,4.7,5.2,5.1,10.1,1.8c1-0.6,1.9-2.5,3.9-1c-3.1,4-7.2,6.3-11.9,6.8c-4.5,0.4-8.8,0.5-12.2,4c-0.7,0.7-1.7,0.7-2.3,0
			c-0.8-0.9,0.3-1.6,0.8-2.1c0.9-0.7,2-1.3,3-1.9c2.1-1.2,4.4-1.6,6.8-2.1c0.6-0.1,3.3-0.2,1.5-2.4c-3.2-4-6.2-8.2-9.7-12
			c-1.7-1.9-3.1-4.8-6-5.1c-5.4-0.5-10.7,1-15.8,2.3c-4.2,1.1-7.5,9.3-6,15.2c0.9,3.4-0.3,7.1,2,10.1c0.6,0.7-0.2,0.9-0.7,1.2
			c-6.4,3.7-7.9,9.7-7.7,16.5c0.2,4.5,1.1,6.6,6.5,6.1c3.5-0.3,6.9-0.3,10.4,0.8c5.6,1.8,8.4,13.5,7,17.9c-1.8,5.6-0.6,11.4-2.4,17
			c-2.6,8-2.5,16.3-0.1,24.4C97.7,337,97.4,337.9,97.4,338.7L97.4,338.7z"/>
		<path d="M189.2,8.5c3.9,3,3.3,7.5,4.9,11.8C189.3,16.1,189.3,16.1,189.2,8.5z"/>
		<path d="M168.7,18.1c0.1-1.5,0.2-3,0.3-5.5c1.7,2.9,4.1,4.1,4.7,6.7c0.2,1,0.2,1.6-0.6,2.1c-1,0.5-1.2-0.3-1.5-0.9
			c-0.6-1.2-1.5-2.2-2.9-2.5C168.6,18,168.7,18.1,168.7,18.1z"/>
		<path d="M101.8,348.8c-4.1-2.3-4.5-6.1-4.4-10.2c0,0-0.1,0.1-0.1,0.1C98.8,339.8,101.8,346.8,101.8,348.8L101.8,348.8z"/>
		<path d="M367.9,465.1c3-1.1,2.7,2.5,4.5,3.1C369.5,469.9,368.5,469.1,367.9,465.1z"/>
		<path d="M214.5,32.8c0,3,0,6,0,8.9c-0.4,0-0.8,0-1.1-0.1C213.4,38.7,211.8,35.6,214.5,32.8L214.5,32.8z"/>
		<path d="M214.6,32.9c0-2.7,0-5.3,0-8c0.3,0,0.6,0,0.9,0.1C215.5,27.6,216.6,30.3,214.6,32.9C214.5,32.8,214.6,32.9,214.6,32.9z"/>
		<path d="M189.1,47.2c-1.8-1-2.1-2.6-1.8-4.4c0-0.2,0.8-0.6,0.8-0.5C189.5,43.7,188.7,45.6,189.1,47.2
			C189,47.3,189.1,47.2,189.1,47.2z"/>
		<path d="M135.2,7.7c0.9,1.7,2.1,2.7,1.9,4.8C134.9,11.5,134.1,10.3,135.2,7.7z"/>
		<path d="M127.9,395c-0.8-1.4-0.2-2.7,0.9-3.5c2.7-2.1,4.8-5.1,8.3-6.1c1.6-0.4,2.6-1.6,3.7-2.7c1-1,2.2-1.9,3.8-1.5
			c-0.8,3.3-4.2,4.6-5.6,7.3c-1.7,3.4-4.3,5.4-8.2,5.3c0,0,0.2,0,0.2,0C129.9,394,128.8,394.1,127.9,395z"/>
		<path d="M80.4,46.6c-3.6,1.7-5.4-1.8-8-2.9c-0.4-0.2-0.6-1.3,0.4-1.7c0.5-0.2,7.2,3.6,7.4,4.2c0.1,0.2,0,0.5-0.1,0.7
			C80.1,46.7,80.2,46.6,80.4,46.6z"/>
		<path d="M127,403.8c-1.7-0.3-1.1-1.6-1.2-2.6c0,0-0.1,0.1-0.1,0.1c0.5,0,1-0.1,1.6-0.1c-0.1,0.7-0.1,1.4-0.2,2
			C127,403.4,127,403.6,127,403.8z"/>
		<path d="M106.1,35.5c-0.3-2.9-1.6-5.2-3.6-7.2c-1.4-1.5-2.9-2.9-4.2-4.5c-0.7-0.9-1.9-2.6-1.5-3.1c2.5-3.8-1.1-6.7-1.1-10.2
			c2.2,2.3,4,4.8,4.4,8.2c0.4,3.4,3.8,5.1,4.7,8.2c0.9,3.2,3.3,5.8,4.1,9.1c-1.3,1-1.9-0.8-2.9-0.6C106,35.4,106.1,35.5,106.1,35.5z
			"/>
		<path d="M76.6,7.8c1.5-1.2,2.2-0.1,3.2,0.7C80.4,8.8,81.1,9.9,82,9c2.1-2.1,2.7,0.3,2.8,1.2c0.2,1.7,2.5,3.8,0.7,4.9
			c-2,1.3-1.6-2-3-2.7C80.2,11.4,78,10.1,76.6,7.8z"/>
		<path d="M48,21c0.1-1.1,0.2-2.2,0.3-3.2c0-0.2,0.2-0.4,0.4-0.8c1.3,0.6,2.6,2.7,4.1,0.2c-0.3,4.6-1.2,5.3-4.9,3.8
			C47.9,20.9,48,21,48,21z"/>
		<path d="M76.2,37.9c-3.7-2-4.1-2.8-3.9-6.1C74.7,33.1,74.9,33.3,76.2,37.9z"/>
		<path d="M85.8,45.4c-1.1-2.4-3.1-3.6-3.1-6C84.7,40.6,87.1,41.5,85.8,45.4z"/>
		<path d="M162.2,350.9c2.8,2.2,2.7,4-0.3,5.6c-2,1-3.4,2.8-5.9,3.2c-1.7,0.3-0.7,1.6,0.1,2.4c0.7,0.8,2.2,0.2,2.8,1.3
			c-5.8,2.4-11.4,0.8-16.5-1.4c-4-1.7-7.9-3.8-12.1-5.2c-3.7-1.2-5.8-4.3-6.9-7.2c-2.1-5.5-6.4-9.7-8-15.4c-0.7-2.4,0-5.1-1.7-7.2
			c-0.1-0.2,0.2-1,0.5-1.2c0.6-0.3,1.3,0,1.6,0.5c0.4,0.8,0.5,1.9,0.9,2.7c3.9,7.2,8.3,13.8,15.5,18.5c4.1,2.7,8,4.2,12.8,4.4
			c5.4,0.2,9.9-0.9,13.7-4.9c2.1-2.2,5.2-2.8,7.9-4c0.6-0.3,1.6-0.4,1.9,0.4c0.2,0.5,0,1.2-0.2,1.7
			C166.9,347.9,164.9,349.8,162.2,350.9z"/>
		<path d="M141.3,290.7c0.6,5.2,2.1,9.6-1.6,13.3c-1.2,1.2-0.9,1.5,0.5,2.2c1.9,0.9,2.1,1.9-0.3,2.7c-1.9,0.7-3.6,1.7-5.4,2.6
			c-0.4,0.2-1,0.3-1.2,0.7c-1.8,2.9-3.3,3.5-6.2,1.2c-1.5-1.2-5.5-1.2-3.7-5c0.3-0.6-0.5-0.6-0.9-0.8c-5.2-2.4-8.2-6.4-9.4-12
			c-0.6-2.7-1.1-5.3-1.4-8.1c-0.7-7.8,3.3-13.2,8.2-18.5c2.9-3.1,5.9-0.9,8.3,0c4.7,1.8,9,4.6,13.5,7c0.6,0.3,1.5,0.4,1.2,1.4
			c-0.3,1.1-1.1,0.4-1.8,0.4c-0.8,0-1.8-0.6-2.1,0.6c-0.3,0.9,0.4,1.5,0.9,2.2c2.6,3.5,2.4,5.1-0.7,8c0-4.7-3.1-7.7-5-11.3
			c-2.6-4.8-7.8-5.1-12.2-6.7c-0.9-0.3-0.8,0.9-0.7,1.6c0.5,2,1.1,3.9,1.5,5.9c0.9,4.9-1.3,8.9-3.8,12.7c-1.6,2.5-1.6,6.7,0.5,9.2
			c2.6,3.2,6.1,5.1,9.7,6.8c0.7,0.3,1.3,0.5,2,0c5.1-3.6,9.6-7.5,9.3-14.6C140.5,292,140.7,291.8,141.3,290.7z"/>
		<path d="M95.4,264c-0.3,0-0.8-0.4-0.6-0.8c1-2,1.1-4.2,1.7-6.2c0,0,0.9,0.1,1.2,0.3c1.3,0.8,1.1,2.2,0.7,3.2
			C97.9,261.8,97.4,263.4,95.4,264z"/>
		<path d="M92.7,251.3c-2.1,1.1-2.9,3.2-5.1,1.8C88.5,251.2,89.8,250.2,92.7,251.3z"/>
		<path d="M163.7,104.8c-3.4,1.1-4.9-2-7.3-2.8c-0.7-0.2-0.1-1,0.3-1.5c0.7-0.8,1.7-1.1,2.6-0.5C161,101.2,162.5,102.6,163.7,104.8z
			"/>
		<path d="M155.6,110.4c2,1,4.1,2.1,4.9,4.9C157.6,114.6,156.5,112.6,155.6,110.4z"/>
		<path d="M188.8,125.2c-1.8-1.9-3.7-3.8-5.5-5.8c0.3-0.2,0.5-0.5,0.8-0.7C186.1,120.6,189.3,121.3,188.8,125.2
			C188.7,125.3,188.8,125.2,188.8,125.2z"/>
		<path d="M181,118.1c-2.2-0.6-3.5-1.6-4.3-3.7C179.3,114.3,180.4,115.7,181,118.1z"/>
		<path d="M99.5,73c1.8-0.1,2.8,0.8,3.5,2.1c0.2,0.4-0.1,1.2-0.7,1C101,75.6,100,74.7,99.5,73z"/>
		<path d="M199.2,306.3c-1-4.6-0.1-9.3-2.1-14.2c3.8,1.4,2.3,4.8,3.6,6.8C202.4,301.7,199.6,303.8,199.2,306.3z"/>
		<path d="M215.1,316.5c-0.2-2.3-2.7-4.2-1.4-7.5C214.5,311.8,216.7,313.7,215.1,316.5z"/>
		<path d="M208.1,292c-1.1-1-2.5-1.9-1.8-3.5c0.2-0.5,0.9-0.5,1.2-0.2C209,289.3,208.3,290.7,208.1,292z"/>
		<path d="M206.2,315.6c-2.2-1.1-2.1-2.6-1.2-5.3C205.5,312.8,205.8,314.2,206.2,315.6z"/>
		<path d="M179.9,377.3c0.2,3.3-2.7,4.5-3.4,6.8c0,0.1-0.7,0.1-0.9-0.1c-0.5-0.4-0.1-0.8,0.1-1.3
			C176.4,380.6,177.8,378.9,179.9,377.3z"/>
		<path d="M130.1,415.8c-0.4-2.1,1.4-3.4,1.6-5.4c0.2-1.7,0.9-3.4-0.1-5.4c1.7-0.1,3,1,4.4,0.4c0,3.8-3,6.6-3.4,10.3
			C132.4,417.7,130.9,415.3,130.1,415.8z"/>
		<path d="M131.6,396.3c2.6-1,5.1-2.1,7.7-3.1c-1,2.4-4.6,3.8-3,7.3c-0.1,0.9-0.2,1.7-0.3,2.6c-3.8-0.5-2.6-4-3.6-6.2
			c-0.1,0-0.2,0-0.4,0c-0.1-0.3-0.2-0.5-0.4-0.8C131.6,396,131.6,396.3,131.6,396.3z"/>
		<path d="M127.2,401.3c0-1,0-2,0-3c0.5,0,1,0,1.6,0C128.6,399.4,129.1,401,127.2,401.3z"/>
		<path d="M132,396.8c0.2,0.1,0.3,0.1,0.4,0c-0.6,0.5-1.2,0.9-1.8,1.4C131.1,397.8,131.5,397.3,132,396.8z"/>
		<path d="M130.2,396.8c0.1,0.5,0.2,1,0.4,1.5c-0.6,0-1.3,0-1.9,0C128.6,397.3,129,396.7,130.2,396.8z"/>
		<path d="M131.6,396c-0.5,0.3-1,0.6-1.6,0.9c0.1-1.1-0.1-2.3,0.9-3.1c0,0-0.2,0-0.2,0c0.3,0.8,0.5,1.6,0.8,2.4
			C131.6,396.3,131.6,396,131.6,396z"/>
	</g>
</g>
</svg>
